# xmcd
#
# Track frame offsets:
#	150
#	10551
#	21907
#	35976
#	49231
#	59252
#	71611
#	84367
#	95992
#	108808
#	121543
#	132708
#	144261
#	157096
#	167221
#	178218
#	189818
#	207265
#	219882
#	230650
#	243626
#	256063
#	268689
#	280531
#	291466
#	303704
#	317954
#	331019
#	342974
#
# Disc length: 4749 seconds
# Revision: 0
# Processed by: cddbd v1.5.2PL0 Copyright (c) Steve Scherf et al.
# Submitted via: dBpowerAMP V12.0
#
DISCID=b1128b1d
DTITLE=Various Artist - For This I Thank You: Motown R& B, Popcorn and Rock 'n' Roll Disc 3
DYEAR=2013
DGENRE=R&B
TTITLE0=Mary Wells - Come to Me
TTITLE1=Marvelettes, The - Please Mr Postman
TTITLE2=Supremes, The - I Want a Guy
TTITLE3=Contours, The - Whole Lotta Woman
TTITLE4=Freddie Gorman - Just for You
TTITLE5=Little Otis - Baby I Need You
TTITLE6=Barrett Strong - You Knows What to Do
TTITLE7=Miracles, The - Ain't It, Baby
TTITLE8=Mary Wells - I Don't Want to Take a Chance
TTITLE9=Sammy Ward - Don't Take It Away
TTITLE10=Gino Parks - Blibberin' Blabbin' Blues
TTITLE11=Chico Leverett - Solid Sender
TTITLE12=Temptations, The - Romance Without Finance
TTITLE13=Nick and the Jaguars - Cool and Crazy
TTITLE14=Richard Wylie and His Band - Money (That's What I Want)
TTITLE15=Little Stevie Wonder - Hallelujah I Love Her So
TTITLE16=Andre Williams - Shoo-Doo
TTITLE17=Charters, The - Show Me Some Sign
TTITLE18=Henry Lumpkin - Don't Leave Me
TTITLE19=Mabel John - Actions Speak Louder Than Words
TTITLE20=Barrett Strong - Two Wrongs Don't Make a Right
TTITLE21=Singin' Sammy Ward - Part Time Love
TTITLE22=Gino Parks - That's No Lie
TTITLE23=Mabel John - You Made a Fool Out of Me
TTITLE24=Eddie Holland - You Deserve What You Got
TTITLE25=Little Stevie Wonder - Don't You Know
TTITLE26=Marvelettes, The - So Long Baby
TTITLE27=Miracles, The - I'll Try Something New
TTITLE28=Little Stevie Wonder - Fingertips ('the Jazz Soul of Little Stevie' LP Version)
EXTD=
EXTT0=
EXTT1=
EXTT2=
EXTT3=
EXTT4=
EXTT5=
EXTT6=
EXTT7=
EXTT8=
EXTT9=
EXTT10=
EXTT11=
EXTT12=
EXTT13=
EXTT14=
EXTT15=
EXTT16=
EXTT17=
EXTT18=
EXTT19=
EXTT20=
EXTT21=
EXTT22=
EXTT23=
EXTT24=
EXTT25=
EXTT26=
EXTT27=
EXTT28=
PLAYORDER=
